<?xml version="1.0" standalone="no"?><!DOCTYPE svg PUBLIC "-//W3C//DTD SVG 1.1//EN" "http://www.w3.org/Graphics/SVG/1.1/DTD/svg11.dtd"><svg class="icon" width="200px" height="199.80px" viewBox="0 0 1025 1024" version="1.1" xmlns="http://www.w3.org/2000/svg"><path fill="currentColor" d="M365.728 146.272l292.576 0 0-73.152-292.576 0 0 73.152zM1024 512l0 274.272q0 37.728-26.848 64.576t-64.576 26.848l-841.152 0q-37.728 0-64.576-26.848t-26.848-64.576l0-274.272 384 0 0 91.424q0 14.848 10.848 25.728t25.728 10.848l182.848 0q14.848 0 25.728-10.848t10.848-25.728l0-91.424 384 0zM585.152 512l0 73.152-146.272 0 0-73.152 146.272 0zM1024 237.728l0 219.424-1024 0 0-219.424q0-37.728 26.848-64.576t64.576-26.848l201.152 0 0-91.424q0-22.848 16-38.848t38.848-16l329.152 0q22.848 0 38.848 16t16 38.848l0 91.424 201.152 0q37.728 0 64.576 26.848t26.848 64.576z" /></svg>